M48
INCH,TZ
VER,1
FMAT,2
DETECT,ON
ATC,ON
T1C0.04200
T2C0.02800
T3C0.03500
T4C0.06000
T5C0.25000
T6C0.12500
T7C0.02000
%
T1
X0.45616Y0.66872
X0.35616
X0.55616
X0.45616Y0.76872
X0.35616
X0.55616
X0.45616Y0.86872
X0.35616
X0.55616
X0.45616Y0.96872
X0.35616
X0.55616
X0.45616Y1.06872
X0.35616
X0.55616
X0.45616Y1.16872
X0.35616
X0.55616
X0.45616Y1.26872
X0.35616
X0.55616
X0.45616Y1.36872
X0.35616
X0.55616
X1.41903Y0.35947
Y0.45947
Y0.55947
X1.48695Y1.52971
X1.18695
X1.38695
X1.28695
X1.08695
X0.78695
X0.98695
X0.88695
X2.05226Y0.96023
Y0.70023
X1.87226Y0.96023
Y0.70023
X1.58422Y2.56083
X1.68422
X1.78422
X1.88422
X1.48422
X1.30646Y1.17249
X1.00646
Y0.77249
Y0.87249
Y1.07249
X1.30646Y1.27249
Y0.57249
Y0.67249
Y1.37249
X1.00646Y0.67249
X1.30646Y0.77249
X1.00646Y1.37249
Y0.97249
Y1.27249
Y0.57249
Y0.47249
X1.30646Y0.87249
Y0.97249
Y1.07249
Y0.47249
X0.10223Y2.20882
Y1.55382
Y1.25382
Y1.05382
Y1.15382
Y1.90882
Y1.45382
Y1.35382
Y1.65382
Y1.80882
Y2.00882
Y2.10882
Y2.30882
X2.00923Y1.40882
Y1.80882
Y2.50882
Y2.40882
Y1.60882
Y1.50882
Y1.70882
Y2.20882
Y2.00882
Y2.10882
Y2.30882
Y1.30882
X0.76580Y2.23982
Y2.63982
X1.34206Y2.24365
Y2.64365
X0.88386Y2.49884
X0.98386
X1.12335Y2.50040
X1.22335
X1.48373Y2.41252
Y2.01252
T2
X1.16204Y0.17659
X1.21204
X1.11204
X1.06204
X1.26204
X1.31204
T3
X0.67046Y1.53466
X0.31046
X0.88858Y0.50445
Y0.86445
X1.75503Y1.27130
Y1.37130
X0.70583Y2.00376
Y2.10376
X1.68903Y2.02038
Y2.38038
X1.12847Y0.32756
X1.22847
X0.78958Y0.64605
Y0.74605
X1.54743Y1.38575
Y1.28575
X0.60311Y1.71040
X0.87911
X1.43111
X1.15511
X0.42711
X0.70311
X0.97911
X1.25511
X1.53111
X0.32711
X1.00350Y1.98884
Y2.28884
X0.90350
X0.91350Y1.98884
X1.20350
Y2.28884
X1.10350
X1.11350Y1.98884
X1.78828Y2.02114
Y2.38114
T4
X0.31374Y2.12621
X0.45374Y2.12121
T5
X0.37874Y2.51621
T6
X0.81723Y1.10382
X2.00923Y0.55882
X0.10223Y0.65882
T7
X1.39167Y0.92500
X1.42500Y1.44167
X1.10834Y1.40834
X1.62500Y1.45834
X1.20834Y1.40834
X0.49000Y1.92000
X0.67000Y1.53000
X1.08500Y1.67500
X1.58500Y1.14500
X2.02000Y2.50500
X1.73000Y1.49500
M30
